<?xml version="1.0" encoding="UTF-8"?> <svg xmlns="http://www.w3.org/2000/svg" width="204.774" height="39.131" viewBox="0 0 204.774 39.131"><g id="logo" transform="translate(-1382.359 37.462)"><path id="Path_4713" data-name="Path 4713" d="M284.33,310.054h.506q7.838,0,15.677,0a11.436,11.436,0,0,1,2.91.362,3.738,3.738,0,0,1,2.881,3.157,13.329,13.329,0,0,1,.057,4.009,2.718,2.718,0,0,1-1.463,2.266c1.867.547,2.364,2.025,2.562,3.7a11.627,11.627,0,0,1-.164,3.829,3.954,3.954,0,0,1-3.678,3.505,10.21,10.21,0,0,1-1.68.137q-8.64.009-17.279,0h-.327Zm4.984,16.732a1.009,1.009,0,0,0,.176.033c3.623,0,7.246.01,10.868-.007a1.931,1.931,0,0,0,1.726-.825,2.8,2.8,0,0,0,.212-2.728,2.008,2.008,0,0,0-2.043-1.11c-3.594-.022-7.188-.015-10.781-.017a.615.615,0,0,0-.159.045Zm0-8.874h10.2a3.054,3.054,0,0,0,.389-.019,1.631,1.631,0,0,0,1.554-1.661,1.663,1.663,0,0,0-1.412-1.912,3.17,3.17,0,0,0-.687-.06q-4.782,0-9.563,0a.889.889,0,0,0-.479.05Z" transform="translate(1222.222 -338.095)" fill="#254d79"></path><path id="Path_4714" data-name="Path 4714" d="M524.2,315.942H518.9c-.036-.2-.062-.38-.1-.559a1.271,1.271,0,0,0-.975-.993,4.6,4.6,0,0,0-1.2-.148q-4.353,0-8.706,0a3.771,3.771,0,0,0-.816.083,1.714,1.714,0,0,0-1.485,1.574,1.736,1.736,0,0,0,1.063,1.892,7.064,7.064,0,0,0,3.309.468c2.162-.055,4.318-.291,6.484-.248a13.379,13.379,0,0,1,3.8.547,5.2,5.2,0,0,1,3.8,4.278,10.4,10.4,0,0,1-.05,4.042,4.615,4.615,0,0,1-4.167,3.914,13.972,13.972,0,0,1-2.5.216q-5.263.011-10.525,0a12.145,12.145,0,0,1-3.129-.356,4.507,4.507,0,0,1-3.638-4.2,6.85,6.85,0,0,1-.079-1.364h5.043a2.12,2.12,0,0,0,2.261,1.707c3,.021,6.006.005,9.009,0a4.8,4.8,0,0,0,1.113-.142,1.811,1.811,0,0,0,1.588-1.595,2.2,2.2,0,0,0-.985-2.283,5.282,5.282,0,0,0-2.486-.643,59.435,59.435,0,0,0-5.965.141,18.91,18.91,0,0,1-5.288-.406,5.189,5.189,0,0,1-4.291-5.2,9.03,9.03,0,0,1,.29-2.958,4.36,4.36,0,0,1,3.156-3.2,12.53,12.53,0,0,1,3.5-.472q5.024-.019,10.049,0a10.108,10.108,0,0,1,4.256.824A5.035,5.035,0,0,1,524.2,315.942Z" transform="translate(1062.893 -338.079)" fill="#254d79"></path><path id="Path_4715" data-name="Path 4715" d="M202.063,310.049h5v20.879a.783.783,0,0,1-.482.067c-1.66,0-3.321-.008-4.981.01a.874.874,0,0,1-.737-.343q-5.813-6.676-11.638-13.341c-.537-.615-1.077-1.227-1.689-1.924v15.57h-5.014V310.085a.832.832,0,0,1,.513-.065c2.137,0,4.274.008,6.41-.012a.973.973,0,0,1,.838.4q5.783,6.844,11.585,13.672c.043.051.091.1.19.206Z" transform="translate(1297.443 -338.061)" fill="#fff"></path><path id="Path_4716" data-name="Path 4716" d="M91.876,331.007c-1.932,0-3.78,0-5.626,0-.257,0-.3-.181-.383-.342-.726-1.457-1.458-2.912-2.168-4.377a.552.552,0,0,0-.584-.368q-5.847.017-11.694,0a.553.553,0,0,0-.591.354c-.724,1.475-1.476,2.936-2.213,4.4-.094.188-.175.332-.437.33-1.79-.013-3.58-.007-5.371-.009a.807.807,0,0,1-.157-.042c.436-.862.861-1.707,1.291-2.549q3.27-6.412,6.543-12.822c.891-1.745,1.786-3.489,2.666-5.24a.51.51,0,0,1,.529-.329q3.573.015,7.147,0a.508.508,0,0,1,.534.316q5.145,10.114,10.307,20.22C91.733,330.682,91.787,330.811,91.876,331.007Zm-18.7-9.314h8.186c-.035-.09-.051-.142-.075-.191q-1.814-3.589-3.631-7.176c-.072-.142-.081-.365-.318-.356s-.242.225-.318.367q-1.121,2.122-2.229,4.25C74.26,319.6,73.732,320.624,73.177,321.692Z" transform="translate(1386.017 -338.072)" fill="#fff"></path><path id="Path_4717" data-name="Path 4717" d="M408.625,314.414V310.2H430.99v4.191h-8.641V331.1H417.32V314.414Z" transform="translate(1130.381 -338.202)" fill="#254d79"></path><path id="Path_4718" data-name="Path 4718" d="M22.661,310.225v4.2H14v16.691H9.079c-.121-.173-.066-.366-.066-.547q-.005-7.818.007-15.637c0-.421-.113-.525-.527-.521-2.541.02-5.083.01-7.624.01H.324v-4.2Z" transform="translate(1432.07 -338.222)" fill="#fff"></path><path id="Path_4719" data-name="Path 4719" d="M386.713,331.142c-1.6,0-3.177,0-4.749,0a1.364,1.364,0,0,1-.188-.029V310.221h4.937Z" transform="translate(1150.22 -338.219)" fill="#254d79"></path><path id="Path_4711" data-name="Path 4711" d="M238.974,70.023a11.964,11.964,0,0,0,2.687,1.2,13.434,13.434,0,0,0,5.236.415,19.163,19.163,0,0,0,6-1.651,17.12,17.12,0,0,0,4.832-3.217,11.378,11.378,0,0,0,2.628-3.667,10.055,10.055,0,0,0-2.089-10.981,10.03,10.03,0,0,0-13.592-.708c-.045.037-.09.074-.136.109a.2.2,0,0,1-.048.019c-.077-.054-.041-.135-.041-.2q0-3.417-.005-6.833a.285.285,0,0,1,.2-.315,16.248,16.248,0,0,1,17.494,3.016,15.7,15.7,0,0,1,5.079,9.665A15.879,15.879,0,0,1,262.808,70.5a15.482,15.482,0,0,1-9.6,4.852,16,16,0,0,1-14.267-5.269.147.147,0,0,1-.014-.02Z" transform="translate(1154.668 -73.821)" fill="#fff"></path><path id="Path_4712" data-name="Path 4712" d="M170.367,12.9h-6.476V6.81h6.463V-.541h7.591a.791.791,0,0,1,.022.318q0,10.82,0,21.639a17.818,17.818,0,0,0,.483,3.981,7.89,7.89,0,0,0,3.93,5.094A11.478,11.478,0,0,0,187.3,32c.544.051,1.09.073,1.636.073a.21.21,0,0,1,.148.057c-.122.057-.243.117-.366.17a17.728,17.728,0,0,1-6.83,1.527,11.966,11.966,0,0,1-7.384-2.272,9.4,9.4,0,0,1-3.2-4.508,14.935,14.935,0,0,1-.933-5.2q0-4.31,0-8.621Z" transform="translate(1218.468 -36.921)" fill="#254d79"></path><path id="Path_4720" data-name="Path 4720" d="M302.027,135.6a2.859,2.859,0,1,1,2.66,2.875A2.861,2.861,0,0,1,302.027,135.6Z" transform="translate(1101.023 -150.261)" fill="#fff"></path><path id="Path_4721" data-name="Path 4721" d="M238.511,223.762l-.057,0,.007-.031.044.038Z" transform="translate(1155.073 -227.6)" fill="#3ec0dd"></path><path id="Path_4722" data-name="Path 4722" d="M238.746,223.958l.063.036-.043.038c-.017-.024-.047-.045-.015-.078Z" transform="translate(1154.832 -227.792)" fill="#3ec0dd"></path></g></svg> 